<svg xmlns="http://www.w3.org/2000/svg" version="1.1" viewBox="72.88 364 891.24 286.4">
<path d="M0 0 C3.375 1 3.375 1 4.61254883 2.8215332 C6.3382161 7.75209007 3.94229339 12.7416779 1.90869141 17.25244141 C0.05923955 20.97233253 -1.86115074 24.64554442 -3.8125 28.3125 C-4.46770145 29.56658511 -5.12200382 30.82114037 -5.77539062 32.07617188 C-9.84321808 39.84921903 -14.13325155 47.46255462 -18.625 55 C-17.965 54.67 -17.305 54.34 -16.625 54 C-9.69829692 53.01394912 -2.67441158 52.87961658 4.3125 52.8125 C5.39446655 52.79304321 5.39446655 52.79304321 6.49829102 52.77319336 C10.57616914 52.76605338 13.70788695 53.18438434 17.375 55 C17.3125 57.3125 17.3125 57.3125 16.375 60 C10.77180514 62.96772989 5.02032931 64.05272884 -1.1875 65.125 C-2.63600342 65.38265137 -2.63600342 65.38265137 -4.11376953 65.64550781 C-11.6098387 66.93254753 -19.01737255 67.74035401 -26.625 68 C-26.90335693 68.87873779 -27.18171387 69.75747559 -27.46850586 70.6628418 C-28.52224189 73.70348309 -29.72853697 76.50119556 -31.12890625 79.39453125 C-50.13212571 116.00898281 -50.13212571 116.00898281 -51.73046875 155.875 C-50.8100838 158.15207772 -50.8100838 158.15207772 -48.625 159 C-41.47899695 159.55434438 -36.64375579 156.51774383 -30.625 153 C-29.63113281 152.45085937 -28.63726562 151.90171875 -27.61328125 151.3359375 C-18.75253084 145.46100613 -17.39792756 137.99722222 -14.99609375 128.2421875 C-11.79694823 115.39478865 -4.95002828 106.06936373 4.375 97 C5.48294922 95.91332031 5.48294922 95.91332031 6.61328125 94.8046875 C13.33535847 88.56555563 19.36511696 86.38032851 28.5625 86.65625 C32.50497363 87.13810789 34.56833086 88.19333086 37.375 91 C40.25225126 95.7335424 40.80464348 99.40774172 39.9375 104.74609375 C36.56794117 118.24772878 24.73356053 127.10788465 13.375 134 C8.15348312 136.89607456 2.78757767 139.48350285 -2.625 142 C-2.16916483 147.10667735 -2.16916483 147.10667735 0.3125 151.4375 C5.82439993 154.24969384 10.69726314 153.77116196 16.5625 152.08203125 C31.63133399 146.59114716 51.90371742 134.77560913 59.375 120 C60.4614665 117.17868594 61.3938292 114.31720862 62.3125 111.4375 C62.57264893 110.64335693 62.83279785 109.84921387 63.10083008 109.03100586 C64.27347051 105.44711222 65.41997331 101.85638525 66.546875 98.2578125 C66.88203125 97.20335937 67.2171875 96.14890625 67.5625 95.0625 C67.84480469 94.14597656 68.12710938 93.22945313 68.41796875 92.28515625 C69.42773955 89.87407087 70.31997488 88.59835287 72.375 87 C74.9375 86.6875 74.9375 86.6875 77.375 87 C79.86915565 89.49415565 79.67219077 90.30032059 79.6875 93.75 C79.60137164 99.6771971 78.41800002 105.18756936 77.03125 110.93359375 C76.23548409 114.12926421 76.23548409 114.12926421 76.375 118 C76.705 117.34 77.035 116.68 77.375 116 C78.035 116 78.695 116 79.375 116 C79.58253906 115.47019531 79.79007813 114.94039063 80.00390625 114.39453125 C81.93928973 111.01450256 84.57516857 108.41813484 87.3125 105.6875 C87.88718018 105.11225586 88.46186035 104.53701172 89.05395508 103.94433594 C95.35753209 97.79949769 103.08357715 91.01291897 112.1875 90.5625 C116.17965094 90.63182824 117.15570784 90.8377238 120.5 93.3125 C126.647791 102.85142126 120.51637601 118.77578383 118.375 129 C119.14070313 128.01773438 119.14070313 128.01773438 119.921875 127.015625 C124.22104751 121.61879143 128.66254757 116.47960649 133.5 111.5625 C133.97791992 111.06717773 134.45583984 110.57185547 134.94824219 110.06152344 C140.68809241 104.32948785 146.2500477 101.26209524 154.375 101 C157.77034223 101.7545205 158.93864686 102.40343991 160.9921875 105.2109375 C164.76218989 112.81484062 162.19291303 122.81099757 160.828125 130.84375 C159.46125433 139.83037275 159.46125433 139.83037275 162.375 148 C166.6748168 148.96745878 169.44417114 147.64598804 173.125 145.5625 C178.7630272 141.97389143 183.56319734 137.61311063 188.375 133 C189.24125 132.195625 190.1075 131.39125 191 130.5625 C193.94260839 127.38758042 196.58287087 124.01344354 199.26953125 120.62109375 C209.23530701 108.21471984 224.71677992 91.16608434 241.375 89 C248.67577908 88.51944239 254.91600052 88.33011393 261.375 92 C261.705 92.33 262.035 92.66 262.375 93 C264.70317964 93.36760731 267.0368385 93.70241581 269.375 94 C268.9108567 101.76015021 266.71419848 108.21113134 263.9375 115.4375 C259.5153265 127.01339493 255.25636737 138.52546946 258.375 151 C266.28190237 151 270.73090878 148.57198987 276.67919922 143.45117188 C277.88944821 142.41550818 279.12016893 141.40357213 280.36376953 140.40820312 C293.34208692 129.87868073 298.63133995 118.8468104 303.39453125 103.11328125 C304.82675733 98.41470999 306.17980545 94.7463164 309.375 91 C312 90 312 90 314.375 90 C316.375 92 316.375 92 316.6875 95.80859375 C316.54665222 102.0851228 314.92569365 108.00990521 313.375 114.0625 C313.08882813 115.21427734 312.80265625 116.36605469 312.5078125 117.55273438 C311.80617814 120.37096572 311.09506884 123.18643313 310.375 126 C311.12523437 125.09378906 311.87546875 124.18757813 312.6484375 123.25390625 C332.47798996 99.53671784 332.47798996 99.53671784 346.73828125 96.49609375 C350.00133464 96.30559534 352.21162529 96.91213473 355.07373047 98.45141602 C358.49662334 102.24216274 357.95460748 105.47169251 357.7578125 110.40234375 C357.74362274 111.31705948 357.72943298 112.23177521 357.71481323 113.17420959 C357.66699932 116.09635622 357.58608181 119.01624873 357.5 121.9375 C357.42445823 124.85500029 357.35639257 127.77202094 357.30661011 130.69007874 C357.27469982 132.50458458 357.227574 134.31890309 357.1633606 136.1325531 C357.06770248 140.96999858 357.26112353 144.02794855 360.375 148 C367.45743923 147.444163 371.5524358 144.5551569 377.2890625 140.6171875 C380.375 139 380.375 139 383.2734375 139.2578125 C383.96695312 139.50273437 384.66046875 139.74765625 385.375 140 C384.86757001 145.75087327 381.681648 149.05656652 377.46484375 152.609375 C371.00390526 157.34661484 363.32468407 160.47663624 355.2109375 159.6953125 C351.36756392 158.75299777 348.90667104 156.94988219 346.375 154 C340.38203362 143.6121916 343.26173638 128.42972339 344.25390625 116.87890625 C344.60543263 114.05719273 344.60543263 114.05719273 343.375 112 C332.13331047 113.76290131 321.11362299 130.8960962 314.70703125 139.5546875 C311.35446594 144.18252474 308.11935622 148.88774798 304.9296875 153.62890625 C304.53160889 154.21599365 304.13353027 154.80308105 303.72338867 155.40795898 C302.63415228 157.01902093 301.55687692 158.63815143 300.48046875 160.2578125 C298.35528573 163.0256761 296.18453468 164.95046161 293.375 167 C288.5 165.25 288.5 165.25 287.375 163 C287.18669938 157.53928212 287.60298036 152.40413745 288.375 147 C287.35792969 147.87011719 287.35792969 147.87011719 286.3203125 148.7578125 C267.49315536 164.56010783 267.49315536 164.56010783 256.8125 163.875 C252.61812992 163.24055747 250.2004678 162.32407976 247.375 159 C244.25213754 152.68866873 243.75103609 145.93721757 243.375 139 C242.79105469 139.61875 242.79105469 139.61875 242.1953125 140.25 C232.30542494 150.45891619 218.4110927 162.44345267 203.77734375 164.3359375 C199.80451426 164.39889835 197.04888759 164.32977478 193.4375 162.5625 C189.78277343 158.02177911 188.74235562 152.57070808 187.375 147 C186.70855469 147.51949219 186.04210937 148.03898438 185.35546875 148.57421875 C177.01474692 154.88517051 168.51601246 161.09538623 157.60546875 160.48828125 C153.69681526 159.63262155 152.03122804 157.98825655 149.375 155 C147.20920075 150.83157815 147.06547605 146.91657101 147.125 142.3125 C147.12886719 141.58297119 147.13273438 140.85344238 147.13671875 140.10180664 C147.26569737 131.67430758 148.28142577 123.34826754 149.375 115 C144.89847605 116.40690753 142.53760059 118.58259273 139.375 122 C138.63121094 122.75796875 137.88742187 123.5159375 137.12109375 124.296875 C131.97852893 129.76139396 127.52758341 135.40764538 123.25 141.5625 C122.74259277 142.29243164 122.23518555 143.02236328 121.71240234 143.77441406 C121.21562988 144.48952148 120.71885742 145.20462891 120.20703125 145.94140625 C117.84230025 149.34323052 115.44839971 152.70414859 112.9375 156 C112.36128906 156.763125 111.78507813 157.52625 111.19140625 158.3125 C108.94222331 160.4020635 107.40623494 160.75554557 104.375 161 C102.0625 160.125 102.0625 160.125 100.375 158 C99.60793825 151.88011163 100.79183237 146.09339392 102.34375 140.203125 C102.5435144 139.40646423 102.74327881 138.60980347 102.94909668 137.78900146 C103.58110959 135.27335314 104.22693437 132.76155637 104.875 130.25 C105.52137281 127.72379577 106.16456814 125.19690387 106.80090332 122.66815186 C107.19531119 121.10280833 107.59565687 119.5389452 108.00280762 117.97686768 C108.94848152 114.24353825 109.61432015 110.85761293 109.375 107 C106.57574932 105.69186418 106.57574932 105.69186418 104.75390625 106.72265625 C87.88917967 119.16265887 76.13200707 139.56432314 65.33984375 157.15234375 C63.26049622 160.16595081 61.12897118 162.58808256 58.375 165 C55.1875 165.4375 55.1875 165.4375 52.375 165 C50.375 163 50.375 163 50.0625 159.1875 C50.17459645 152.95086132 51.81510212 147.00746387 53.375 141 C52.75496094 141.54527344 52.13492188 142.09054687 51.49609375 142.65234375 C37.01715498 154.98157109 19.15301392 166.57497201 -0.625 165 C-7.77684387 163.6972962 -11.91574153 159.27286654 -16.625 154 C-19.84590457 155.38483337 -22.38073509 157.32487172 -25.08984375 159.52978516 C-34.05290503 166.79250098 -41.72704822 170.93811648 -53.6328125 170.50390625 C-58.37643669 169.70504526 -60.82641997 167.83805261 -63.625 164 C-69.68665689 155.28863681 -68.50540313 144.71382712 -66.77734375 134.76171875 C-62.3477956 111.8457906 -53.88643904 90.33561142 -44.625 69 C-45.615 69.495 -45.615 69.495 -46.625 70 C-51.11982024 70.2708712 -55.62294345 70.23160549 -60.125 70.25 C-61.38699219 70.270625 -62.64898437 70.29125 -63.94921875 70.3125 C-65.75326172 70.32023437 -65.75326172 70.32023437 -67.59375 70.328125 C-68.70169922 70.3374707 -69.80964844 70.34681641 -70.95117188 70.35644531 C-71.83353516 70.23881836 -72.71589844 70.12119141 -73.625 70 C-75.92941554 66.54337669 -75.88360135 65.05142119 -75.625 61 C-74.625 59 -74.625 59 -72.82543945 58.35180664 C-67.74555171 57.2845599 -63.1709417 56.95975873 -57.98046875 57.24609375 C-50.65228116 57.53581751 -43.5220572 57.80156401 -36.625 55 C-30.46552421 49.13271241 -27.69608522 40.85616464 -24.79345703 33.03173828 C-23.30887421 29.17976388 -21.44496465 25.71083775 -19.3125 22.1875 C-18.70277344 21.14207031 -18.09304687 20.09664063 -17.46484375 19.01953125 C-5.87597025 0 -5.87597025 0 0 0 Z M8.375 110 C3.90493634 116.56096358 0.3214026 123.28320182 -1.625 131 C9.42585652 125.25904085 23.79233165 116.22044894 28.375 104 C28.62569913 101.37429296 28.62569913 101.37429296 28.375 99 C27.34791667 97.77291667 27.34791667 97.77291667 25.1875 97.6875 C18.28083665 98.45490704 12.59319996 104.8767758 8.375 110 Z M213.74609375 123.015625 C208.11064494 130.10867754 201.34343897 139.45396696 202.375 149 C203.035 149.66 203.695 150.32 204.375 151 C213.87201339 151 222.37224853 142.70113322 228.8125 136.5 C229.54114258 135.80511475 230.26978516 135.11022949 231.02050781 134.39428711 C239.47408781 126.1769815 249.12982038 116.21102685 253.375 105 C253.375 103.68 253.375 102.36 253.375 101 C240.04089069 94.33294535 221.47272679 113.97814495 213.74609375 123.015625 Z " fill="#EDB054" transform="translate(148.625,364)"/>
<path d="M0 0 C1.9375 1.625 1.9375 1.625 3 4 C2.57274821 8.18127426 1.50752554 11.50358834 -0.328125 15.265625 C-1.03388672 16.72548828 -1.03388672 16.72548828 -1.75390625 18.21484375 C-2.24761719 19.21644531 -2.74132812 20.21804688 -3.25 21.25 C-3.72824219 22.23613281 -4.20648437 23.22226562 -4.69921875 24.23828125 C-7.75130757 30.51615501 -10.86591389 36.76272238 -14 43 C-13.38068604 42.93941406 -12.76137207 42.87882812 -12.12329102 42.81640625 C-9.27010418 42.53983674 -6.4163268 42.26988266 -3.5625 42 C-2.10166992 41.85691406 -2.10166992 41.85691406 -0.61132812 41.7109375 C15.9453385 40.16048042 15.9453385 40.16048042 18.71264648 42.36328125 C20 44 20 44 20.5625 46.4375 C20 49 20 49 17.8125 51.125 C11.14219228 54.94317614 3.21909199 56.09098928 -4.3515625 55.97265625 C-10.20950507 56.03160033 -15.76707645 56.12121136 -21 59 C-26.27571754 65.10990656 -28.57054631 73.12938064 -30.9609375 80.70898438 C-31.91034182 83.71602624 -32.9529574 86.65841843 -34.0625 89.609375 C-35.57424867 93.65995867 -36.97347131 97.73268272 -38.30078125 101.84716797 C-38.94672749 103.83597871 -39.62589516 105.81011426 -40.3125 107.78515625 C-42.98297889 116.00986033 -45.9161586 128.24269653 -41.78515625 136.3984375 C-39.49985726 138.44870574 -38.05028087 138.80246675 -35 139 C-26.60469266 137.3889287 -19.94025976 131.57647646 -13.54443359 126.25976562 C-12.16467921 125.13432575 -10.73536578 124.07028338 -9.30078125 123.015625 C-1.34256651 116.76898863 2.38914775 108.493484 6.72802734 99.59326172 C8.85535023 95.25613626 11.08105342 90.97170966 13.3125 86.6875 C13.70888672 85.90584473 14.10527344 85.12418945 14.51367188 84.31884766 C16.90599362 79.69804806 19.39644126 75.77543901 23 72 C25.6875 71.5 25.6875 71.5 28 72 C28.66 72.66 29.32 73.32 30 74 C29.69875687 79.96501826 28.15511396 84.88387448 25.91015625 90.375 C25.60556992 91.14376465 25.30098358 91.9125293 24.98716736 92.70458984 C24.02105351 95.14000216 23.04275978 97.57025083 22.0625 100 C21.08733433 102.43030136 20.11502537 104.86164144 19.14854431 107.29541016 C18.54957712 108.80244749 17.94554835 110.30748717 17.33546448 111.81005859 C14.46709956 119.00212126 12.38710484 125.25810323 14 133 C17.00915099 134.02944639 19.19163718 134.30844832 22.1965332 133.16186523 C29.36248328 129.51989182 35.77947804 125.15022193 42.29492188 120.46484375 C43.09091797 119.90410156 43.88691406 119.34335937 44.70703125 118.765625 C45.4131958 118.25805664 46.11936035 117.75048828 46.84692383 117.22753906 C49.23438887 115.86636725 51.29499204 115.39653327 54 115 C54.20168445 117.72508525 54.29651762 119.47920723 52.92578125 121.88671875 C43.72521104 132.15660462 28.75641692 144.72608485 14.4765625 146.2734375 C6.85373238 146.54493556 6.85373238 146.54493556 3.0625 144.125 C0.32967262 139.98435245 -1.37611938 135.67205878 -3 131 C-3.89460938 131.72445312 -4.78921875 132.44890625 -5.7109375 133.1953125 C-17.56366744 142.71072225 -27.63592977 150.73381409 -43.453125 150.296875 C-47.38690904 149.83833576 -49.19596175 148.80403825 -52 146 C-56.60692112 139.17969778 -58.07061498 132.07316536 -59 124 C-59.57105469 124.61746094 -60.14210938 125.23492187 -60.73046875 125.87109375 C-68.68763055 134.18246943 -78.66279218 144.05796716 -90.6328125 145.265625 C-91.86644531 145.25789063 -91.86644531 145.25789063 -93.125 145.25 C-93.95257812 145.25515625 -94.78015625 145.2603125 -95.6328125 145.265625 C-98.24385888 144.9726363 -99.80465692 144.43541663 -102 143 C-106.00177128 136.64424562 -107.06459917 130.38474342 -108 123 C-108.54785156 123.53367187 -109.09570312 124.06734375 -109.66015625 124.6171875 C-120.31185154 134.62804909 -133.66996603 145.7358104 -148.8125 146.5625 C-152.69417391 146.40898747 -153.79442199 146.14684143 -157.0625 143.8125 C-160.06263904 139.45745946 -161.09523719 136.59298191 -161.04296875 131.328125 C-161.03676514 130.51762695 -161.03056152 129.70712891 -161.02416992 128.87207031 C-161.01619385 128.25428711 -161.00821777 127.63650391 -161 127 C-161.50225098 127.3717334 -162.00450195 127.7434668 -162.52197266 128.12646484 C-164.88877818 129.87715642 -167.25688937 131.62607426 -169.625 133.375 C-170.41390625 133.95894531 -171.2028125 134.54289063 -172.015625 135.14453125 C-172.82773437 135.74394531 -173.63984375 136.34335937 -174.4765625 136.9609375 C-175.33838135 137.61006104 -176.2002002 138.25918457 -177.08813477 138.92797852 C-179.22439149 140.44809345 -181.30062899 141.79359416 -183.55053711 143.11694336 C-194.07059623 149.52459127 -197.06922914 156.20370583 -200.3125 167.8125 C-201.03349536 170.16922022 -201.77265794 172.51975518 -202.51263428 174.87057495 C-202.9988891 176.41955371 -203.47963033 177.97027483 -203.95465088 179.5227356 C-210.35557272 200.3610919 -219.99182725 224.95560086 -239.9609375 236.09375 C-246.01390747 238.76199799 -253.01118165 239.23859802 -259.33984375 237.2734375 C-264.48858997 234.91479398 -267.67593156 231.86881496 -270.078125 226.6640625 C-272.51010448 219.63605401 -271.46129274 212.32899376 -268.44921875 205.66015625 C-261.35055172 192.62998846 -251.47778443 181.34808059 -240 172 C-239.20118408 171.34064453 -239.20118408 171.34064453 -238.38623047 170.66796875 C-231.02847385 164.60416933 -223.62812745 158.85493854 -215.5859375 153.71875 C-214.73257813 153.1515625 -213.87921875 152.584375 -213 152 C-212.12988281 151.45601562 -211.25976562 150.91203125 -210.36328125 150.3515625 C-206.98045573 146.98551133 -206.09420164 143.39507612 -204.8125 138.875 C-204.43134033 137.60209106 -204.43134033 137.60209106 -204.04248047 136.3034668 C-202.36162949 130.58583594 -200.96474988 124.88497427 -200 119 C-200.69222656 119.60585938 -201.38445312 120.21171875 -202.09765625 120.8359375 C-216.58357739 133.24153531 -234.40042632 147.80580613 -254.41015625 147.3125 C-260.33648884 146.59740708 -265.98364792 144.62064738 -270 140.0625 C-275.35558275 131.86176391 -275.00434156 122.80356861 -273.3828125 113.43359375 C-269.19572061 97.14840008 -260.24680601 81.63633462 -245.875 72.375 C-239.67559545 69.07452712 -234.20114983 67.08125286 -227.25 69 C-222.68568389 70.82732236 -220.54615394 72.78293254 -218 77 C-216.33750926 82.86761438 -217.03766254 86.87862877 -219.51171875 92.421875 C-222.30781988 97.26551476 -226.04947197 101.08185335 -230 105 C-230.62132812 105.66644531 -231.24265625 106.33289063 -231.8828125 107.01953125 C-237.97070979 113.0704575 -252.07765043 124 -261 124 C-260.60246179 125.46366342 -260.18118616 126.9208935 -259.75 128.375 C-259.40195312 129.59316406 -259.40195312 129.59316406 -259.046875 130.8359375 C-258.16796703 133.11201203 -258.16796703 133.11201203 -256.140625 134.265625 C-248.31810268 136.94926405 -240.24184582 134.24574295 -233 131 C-223.90309917 126.1091931 -215.77189635 119.75968829 -208 113 C-207.07703125 112.19949219 -206.1540625 111.39898437 -205.203125 110.57421875 C-197.54274532 104.00968269 -197.54274532 104.00968269 -193.5703125 95.0078125 C-193.21259766 93.57888672 -193.21259766 93.57888672 -192.84765625 92.12109375 C-192.3680938 90.13285377 -191.89407985 88.14326684 -191.42578125 86.15234375 C-189.92845258 80.2190788 -188.49339062 76.2449409 -184 72 C-181.3125 71.5 -181.3125 71.5 -179 72 C-177 74 -177 74 -176.72998047 76.20825195 C-176.76097535 83.10833193 -177.6171921 89.46344594 -179.125 96.1875 C-179.34365723 97.20400635 -179.56231445 98.2205127 -179.78759766 99.26782227 C-181.718507 108.09493304 -183.90491296 116.85936033 -186.20751953 125.59643555 C-186.45614746 126.55332275 -186.70477539 127.51020996 -186.9609375 128.49609375 C-187.29810791 129.76731079 -187.29810791 129.76731079 -187.64208984 131.06420898 C-187.7602002 131.70302002 -187.87831055 132.34183105 -188 133 C-187.67 133.33 -187.34 133.66 -187 134 C-182.96782388 131.17502554 -178.96075386 128.31866975 -174.97558594 125.42773438 C-173.71792619 124.51883741 -172.4559838 123.61581605 -171.18847656 122.72070312 C-162.04249091 116.23397045 -155.26971893 108.85071276 -148.3046875 100.09375 C-138.02636652 87.21174586 -123.90293871 73.74988107 -107 71 C-99.2841428 70.35876391 -94.43829875 70.70780083 -88 75 C-85.6828556 75.83343929 -83.39641031 76.41312401 -81 77 C-82.81469968 85.50316423 -85.49346552 93.55272921 -88.48657227 101.70410156 C-91.18937446 109.16694144 -93.29200124 116.37376359 -93.25 124.375 C-93.25515625 125.37273437 -93.2603125 126.37046875 -93.265625 127.3984375 C-93.18072656 130.23516979 -93.18072656 130.23516979 -91 133 C-80.42776401 133 -72.26878288 123.54255416 -64.80078125 116.98046875 C-63.84873495 116.00464771 -62.91748421 115.00838563 -62 114 C-61.40171387 113.34749268 -60.80342773 112.69498535 -60.18701172 112.02270508 C-52.59373219 102.74420618 -49.37541273 91.48999679 -45.5 80.3125 C-44.76728323 78.2422509 -44.0329212 76.17258333 -43.296875 74.10351562 C-41.51222316 69.07555877 -39.74802581 64.04079957 -38 59 C-38.99 59.495 -38.99 59.495 -40 60 C-43.61912367 60.26712387 -47.24711984 60.23156096 -50.875 60.25 C-51.88175781 60.270625 -52.88851562 60.29125 -53.92578125 60.3125 C-54.89644531 60.31765625 -55.86710938 60.3228125 -56.8671875 60.328125 C-58.19919189 60.34214355 -58.19919189 60.34214355 -59.55810547 60.35644531 C-62.48868297 59.92866655 -63.87343375 59.031956 -66 57 C-66 56.34 -66 55.68 -66 55 C-58.01449188 51.48934656 -50.12278402 49.54662841 -41.59570312 47.84570312 C-40.65791016 47.64783203 -39.72011719 47.44996094 -38.75390625 47.24609375 C-37.49042358 46.99363892 -37.49042358 46.99363892 -36.20141602 46.73608398 C-32.74950767 45.58187486 -31.47565449 43.86304319 -29.74487305 40.72265625 C-29.33793213 39.84480469 -28.93099121 38.96695313 -28.51171875 38.0625 C-28.05216797 37.08410156 -27.59261719 36.10570312 -27.11914062 35.09765625 C-26.64669922 34.07542969 -26.17425781 33.05320312 -25.6875 32 C-15.51681347 10.1223554 -15.51681347 10.1223554 -10 3.8125 C-9.38125 3.07644531 -8.7625 2.34039062 -8.125 1.58203125 C-5.28098613 -0.53529525 -3.46427193 -0.41005668 0 0 Z M-244.875 87.375 C-251.77130046 94.44370797 -256.59426211 103.46209976 -259 113 C-246.9479276 106.8328134 -235.42139881 98.65797662 -229.44140625 86.15625 C-228.88304497 83.42867985 -229.52986585 82.30198942 -231 80 C-237.12728603 80 -240.52036577 83.3960597 -244.875 87.375 Z M-125.875 94.3125 C-135.60305776 102.82672586 -146.67442973 115.50758827 -148 129 C-146.66846734 131.30504044 -146.66846734 131.30504044 -145 133 C-130.48007416 131.47045292 -117.11633762 115.69231078 -108.36621094 105.00439453 C-103.99722561 99.35602229 -99.9037478 93.55204631 -97 87 C-97.19530151 84.70112992 -97.19530151 84.70112992 -98 83 C-108.72462496 80.66501836 -117.92880289 87.65212932 -125.875 94.3125 Z M-220.125 169.0625 C-220.71466553 169.56982666 -221.30433105 170.07715332 -221.91186523 170.59985352 C-223.08644251 171.61167554 -224.25925316 172.62555245 -225.43017578 173.64160156 C-226.68362599 174.72623562 -227.94752273 175.79879342 -229.21484375 176.8671875 C-241.45413418 187.26929057 -257.67793066 201.25047883 -259.3125 218.25 C-258.99265662 221.06462173 -258.64267752 222.70025148 -257 225 C-254.38952138 227.03037226 -252.97028787 226.99889955 -249.625 226.875 C-240.6378613 224.70569066 -235.31495313 217.83481774 -230.6484375 210.28515625 C-222.21035185 196.02320812 -215.20461236 180.3068035 -212 164 C-215.4257713 164 -217.64029294 166.90171786 -220.125 169.0625 Z " fill="#EDB053" transform="translate(910,382)"/>
<path d="M0 0 C1.22429529 0.00010008 1.22429529 0.00010008 2.47332382 0.00020218 C7.17760987 0.00222747 11.88176134 0.0133988 16.58599281 0.03635597 C18.0086952 0.04319749 19.43140399 0.04884551 20.85411644 0.05310631 C28.57025682 0.08033785 36.28181818 0.24199206 43.99072266 0.57519531 C44.72362707 0.59689159 45.45653149 0.61858788 46.21164513 0.64094162 C48.26821899 0.74542236 48.26821899 0.74542236 51.625 1.25 C54.19187367 5.1003105 53.45788724 6.83569763 52.625 11.25 C40.68535896 14.76165913 28.0035278 14.44147186 15.64704514 14.78964043 C12.00886362 14.89252477 8.37092753 15.00316588 4.73295593 15.11318684 C2.78605596 15.17201257 0.83914616 15.2305139 -1.10777283 15.28870678 C-83.36894414 17.74887608 -165.59004008 21.71769185 -444.265625 59.93359375 C-447.31611896 60.96278673 -449.99865208 61.6607291 -453.25 61.625 C-454.32894531 61.63660156 -454.32894531 61.63660156 -455.4296875 61.6484375 C-457.93655761 61.13498218 -458.84951579 60.27760284 -460.375 58.25 C-460.46178308 54.25797849 -459.74284575 52.65761285 -457.0625 49.6875 C-423.13148762 24.85221355 -358.30765239 25.51613881 -318.375 20.25 C-317.28110962 20.10477905 -316.18721924 19.95955811 -315.06018066 19.80993652 C-308.78603371 18.97763962 -302.51007939 18.16192236 -296.23080444 17.36920166 C-294.37889399 17.13491205 -292.52730735 16.89803684 -290.67617798 16.65765381 C-249.72536314 11.3739614 -208.34022575 9.28628106 -167.14416885 6.90871048 C-163.24330323 6.68350512 -159.34251571 6.45698462 -155.44174194 6.23019409 C-141.38427451 5.41375663 -127.3262249 4.60813501 -113.26755428 3.8126936 C-106.5187013 3.43033804 -99.77034097 3.04074186 -93.02246094 2.64160156 C-61.99991227 0.81106996 -31.07138754 -0.00550959 0 0 Z " fill="#F6CE68" transform="translate(568.375,588.75)"/>
<path d="M0 0 C1.39046539 0.03229706 1.39046539 0.03229706 2.809021 0.06524658 C5.71252689 0.13896015 8.61335383 0.24785334 11.515625 0.359375 C13.26101253 0.40888613 15.00645583 0.45647593 16.75195312 0.50195312 C22.09226025 0.65339098 27.42851705 0.8719231 32.765625 1.109375 C33.73929016 1.15227661 34.71295532 1.19517822 35.71612549 1.23937988 C172.15845804 7.38550512 172.15845804 7.38550512 191.30419922 22.79931641 C192.515625 24.359375 192.515625 24.359375 192.453125 27.359375 C191.515625 30.359375 191.515625 30.359375 189.890625 32.234375 C184.94446512 34.57729284 179.38722693 33.30069942 174.203125 32.22265625 C172.98334961 31.97749268 171.76357422 31.7323291 170.50683594 31.47973633 C169.85936401 31.34806061 169.21189209 31.21638489 168.5447998 31.08071899 C155.51488673 28.45541451 142.44640304 26.37312834 129.265625 24.671875 C128.54262207 24.57572906 127.81961914 24.47958313 127.07470703 24.38052368 C95.35113932 20.19387413 63.34054544 18.68897364 31.40325928 17.17608643 C26.37626944 16.93765165 21.34963246 16.69337564 16.32332039 16.44104195 C14.02440611 16.32791852 11.72521627 16.2231902 9.42588806 16.11888123 C-11.74515943 15.09859057 -11.74515943 15.09859057 -15.484375 11.359375 C-15.40128816 7.62046722 -14.73980307 5.70717845 -12.51855469 2.68261719 C-8.28583291 -0.55833715 -5.1774664 -0.23058216 0 0 Z " fill="#F7CE68" transform="translate(721.484375,589.640625)"/>
<path d="M0 0 C2.548704 2.91280457 3.14754012 4.72449886 3.375 8.52734375 C3.10232437 11.39611864 1.9371387 13.26046247 0.1875 15.5 C-2.4381306 14.55185562 -4.53448018 13.7328416 -6.6875 11.9296875 C-9.95611974 9.73057936 -12.42145075 10.28558516 -16.203125 10.7890625 C-21.11944686 12.12853941 -25.06765752 15.06728692 -28.03125 19.19921875 C-29.69707923 24.10508582 -29.43660588 28.62880783 -27.34375 33.2890625 C-26.68391551 34.57669422 -26.00605437 35.85521288 -25.3125 37.125 C-24.95663818 37.80651123 -24.60077637 38.48802246 -24.23413086 39.19018555 C-21.10829765 45.11754421 -17.77521935 50.93130505 -14.37890625 56.70703125 C-11.4604683 61.91072984 -11.0577839 66.64444405 -11.8125 72.5 C-14.17857032 78.72817613 -17.89556357 81.76067758 -23.8125 84.5 C-31.15860036 86.94870012 -38.49693102 85.90424924 -45.453125 82.76953125 C-50.92019203 79.82781472 -56.42521563 76.46821091 -58.8125 70.5 C-59.125 67.3125 -59.125 67.3125 -58.8125 64.5 C-57.8225 63.51 -57.8225 63.51 -56.8125 62.5 C-52.7489033 62.78070898 -50.70883303 64.10713335 -47.8125 66.875 C-42.34578463 71.83271021 -39.16341497 73.85134268 -31.703125 73.703125 C-29.80224098 73.69891607 -29.80224098 73.69891607 -28.8125 72.5 C-27.96169911 64.23872339 -30.54613334 58.56471198 -34.0625 51.1875 C-45.05705182 27.65454197 -45.05705182 27.65454197 -43.61328125 19.58984375 C-42.00829797 15.40122884 -39.01886201 12.53896159 -35.8125 9.5 C-35.27367187 8.9534375 -34.73484375 8.406875 -34.1796875 7.84375 C-25.66842399 -0.21522415 -11.23518127 -6.02270534 0 0 Z " fill="#EDAF53" transform="translate(632.8125,448.5)"/>
<path d="M0 0 C3.14390604 0.23307376 4.70119897 0.69723905 7.5625 2.1875 C10.2853069 5.50592091 10.78100798 7.32767632 10.5625 11.625 C9.00492137 14.52570803 7.18201248 16.63252966 4.5625 18.625 C0.43749549 19.57031353 -1.06671551 18.83487801 -4.75 16.75 C-7.4375 14.625 -7.4375 14.625 -8.4375 12.625 C-8.86396962 8.87206732 -8.49102426 6.75066565 -7 3.25 C-4.22469452 0.40700414 -3.75125002 0.17505833 0 0 Z " fill="#EEAE51" transform="translate(945.4375,420.375)"/>
<path d="M0 0 C4.43357093 0.79170909 5.84171883 2.02850194 8.5 5.625 C9.5625 8.625 9.5625 8.625 9.5 11.625 C7.72960551 14.37216387 6.43708156 16.15645922 3.5 17.625 C-3.48049415 18.31160598 -3.48049415 18.31160598 -7.5625 15.5625 C-9.5 12.625 -9.5 12.625 -9.625 9.125 C-7.87389035 3.67710331 -5.74059432 1.02510613 0 0 Z " fill="#EDAF51" transform="translate(734.5,422.375)"/>
<path d="M0 0 C0 3 0 3 -1.29760742 4.66992188 C-1.89420166 5.26353516 -2.4907959 5.85714844 -3.10546875 6.46875 C-3.75966797 7.12230469 -4.41386719 7.77585937 -5.08789062 8.44921875 C-5.78076172 9.12597656 -6.47363281 9.80273438 -7.1875 10.5 C-7.86103516 11.17675781 -8.53457031 11.85351562 -9.22851562 12.55078125 C-15.88220564 19.13306581 -15.88220564 19.13306581 -20 21 C-20.66 20.67 -21.32 20.34 -22 20 C-17.23702599 15.69575504 -12.4734094 11.39555345 -7.625 7.1875 C-4.97879985 4.8841274 -2.43160974 2.53292681 0 0 Z " fill="#E9A53E" transform="translate(715,483)"/>
<path d="M0 0 C0.33 0.66 0.66 1.32 1 2 C-2 5 -5 8 -8 11 C-8.66 10.67 -9.32 10.34 -10 10 C-6.7 6.7 -3.4 3.4 0 0 Z " fill="#EDAA45" transform="translate(208,486)"/>
<path d="M0 0 C0.66 0.33 1.32 0.66 2 1 C2.36923077 6.41538462 2.36923077 6.41538462 0.5 9.375 C0.005 9.91125 -0.49 10.4475 -1 11 C-2.41687119 6.74938644 -1.19320039 4.28148375 0 0 Z " fill="#EFB55F" transform="translate(257,481)"/>
<path d="M0 0 C0.99 0.33 1.98 0.66 3 1 C1 3 -1 5 -3 7 C-3.66 7 -4.32 7 -5 7 C-3.70700306 4.11562221 -2.34058637 2.12780579 0 0 Z " fill="#EDA842" transform="translate(903,383)"/>
</svg>