<svg xmlns="http://www.w3.org/2000/svg" version="1.1" viewBox="72.75 251.65 891.56 478.66">
<path d="M0 0 C1.9375 1 1.9375 1 3 3 C3.54224711 9.55690913 2.24838937 13.75137755 -0.6875 19.5625 C-1.07671631 20.35954346 -1.46593262 21.15658691 -1.86694336 21.9777832 C-7.12764511 32.55701891 -13.07078548 42.78543639 -19 53 C-18.25427734 52.9592334 -17.50855469 52.9184668 -16.74023438 52.87646484 C-13.32734577 52.69692275 -9.91381987 52.53582235 -6.5 52.375 C-5.32695312 52.31054688 -4.15390625 52.24609375 -2.9453125 52.1796875 C3.48720124 51.89058576 8.85832316 52.00851568 15 54 C15 55.98 15 57.96 15 60 C6.93077862 64.17870393 -1.11677447 65.59124605 -10 67 C-11.18464844 67.19078125 -12.36929688 67.3815625 -13.58984375 67.578125 C-16.9160432 67.98961359 -20.08873139 68.10012661 -23.4375 68.0625 C-24.48808594 68.05347656 -25.53867188 68.04445313 -26.62109375 68.03515625 C-27.79865234 68.01775391 -27.79865234 68.01775391 -29 68 C-29.1124707 68.7101123 -29.22494141 69.42022461 -29.34082031 70.15185547 C-30.05513532 73.2382254 -31.15463257 75.72657303 -32.546875 78.5703125 C-33.0625 79.6325 -33.578125 80.6946875 -34.109375 81.7890625 C-34.92148438 83.44035156 -34.92148438 83.44035156 -35.75 85.125 C-47.66854087 109.54632393 -53.3995826 130.59529338 -53 158 C-42.71761571 157.95450272 -32.89199469 153.81545041 -25.37890625 146.71875 C-21.69423395 142.12595734 -20.39555334 136.26983211 -18.671875 130.73828125 C-13.35177168 113.8496311 -4.61293745 98.52072706 11 89 C17.55395488 85.96459462 23.96976742 85.16439753 31 87 C34.04074533 88.77376811 35.48175405 90.16093513 37.3125 93.125 C39.31213959 101.48712919 38.02521125 107.59419328 33.87890625 115.1171875 C25.15553489 128.50148701 9.82205551 135.85936999 -4 143 C-3.13543707 147.83251026 -3.13543707 147.83251026 -0.12109375 151.41015625 C11.14693844 154.54362377 21.78957794 148.45566166 31.375 143.0625 C36.39983739 140.16569188 40.71312393 136.89716006 45 133 C45.66 133 46.32 133 47 133 C47.27328125 132.39671875 47.5465625 131.7934375 47.828125 131.171875 C49 129 49 129 51.75 126.25 C57.53311104 119.66485166 59.7572786 110.04911338 62.3125 101.80078125 C62.52382568 101.13046875 62.73515137 100.46015625 62.95288086 99.76953125 C63.52881063 97.92065137 64.07965833 96.06401231 64.62890625 94.20703125 C66.19542139 90.54290323 67.9377585 88.52492272 71 86 C73.6875 86 73.6875 86 76 87 C79.41668478 92.12502717 77.76421378 98.08644099 77 104 C76.16220293 108.05229213 75.15678905 112.02763005 74 116 C74.99 116 75.98 116 77 116 C77.1959375 115.31808594 77.391875 114.63617187 77.59375 113.93359375 C79.53154536 109.89113733 82.32533966 107.18324629 85.5 104.0625 C86.44504395 103.13207886 86.44504395 103.13207886 87.40917969 102.18286133 C94.30716617 95.54376874 100.81598431 90.25309501 110.734375 89.83203125 C114.13754516 90.08433524 116.27899951 90.95924963 119 93 C123.95322877 102.7873077 120.53238229 114.94583935 118 125 C118.38744385 124.57702637 118.7748877 124.15405273 119.17407227 123.71826172 C120.96609037 121.76667488 122.76424071 119.8208368 124.5625 117.875 C125.17158203 117.20984375 125.78066406 116.5446875 126.40820312 115.859375 C140.02007359 101.16719736 140.02007359 101.16719736 150.625 100.5 C154.22195813 100.62276308 154.95323116 100.96492337 158 103.25 C162.36219914 109.24802382 161.58615471 116.99375995 160.55078125 124.0703125 C160.18586734 126.09416126 159.81870788 128.11760652 159.44921875 130.140625 C158.49529284 136.2125708 158.76543815 141.981511 160 148 C177.05956227 144.89826141 189.17408368 129.24374842 199.71484375 116.54492188 C202.410851 113.30397698 205.18007636 110.13324849 208 107 C208.48984375 106.4328125 208.9796875 105.865625 209.484375 105.28125 C213.22795298 101.20408587 217.44658044 98.18829937 222.0625 95.1875 C222.65232666 94.80215088 223.24215332 94.41680176 223.84985352 94.01977539 C232.32820356 88.67506332 242.1227094 86.73908528 252 88.8125 C254.8993815 89.54283663 257.33509557 90.66230191 260 92 C262.3243602 92.69730806 264.65673706 93.36912152 267 94 C266.68692304 104.01088812 263.67550043 112.47488117 260.23828125 121.796875 C256.98428753 131.00072778 254.67513041 140.29745517 257 150 C269.8420491 147.96157951 280.08626718 139.51937347 288.04296875 129.40234375 C294.71255356 119.4053281 298.74761261 107.97737005 302.82421875 96.7421875 C303.96406336 94.08381237 305.01671627 92.10287872 307 90 C310.1875 89.75 310.1875 89.75 313 90 C315.57289922 93.77744005 314.94424028 97.20862783 314.3125 101.5 C314.21727051 102.20253906 314.12204102 102.90507813 314.02392578 103.62890625 C313.12816009 109.86671849 311.72208681 115.93825444 310 122 C311.18564437 120.71358658 312.37098683 119.42689379 313.55493164 118.13891602 C314.56677695 117.03891317 315.58031056 115.94046112 316.59545898 114.84350586 C319.37176424 111.83056102 322.00510886 108.7653865 324.5625 105.5625 C329.8311528 99.45391704 337.47123098 96.41933047 345.375 95.6875 C349.69528463 96.05993833 351.69575883 97.24646569 355 100 C356.30142523 103.90427569 356.08389628 107.58377741 356.02734375 111.6484375 C356.01469585 113.39322717 356.00233501 115.13801895 355.99023438 116.8828125 C355.96543158 119.630275 355.93746803 122.37762824 355.90405273 125.125 C355.87378927 127.77865281 355.85605571 130.43216681 355.83984375 133.0859375 C355.82638412 133.9037973 355.8129245 134.7216571 355.79905701 135.56430054 C355.78029526 139.84416086 356.01041032 143.09539958 358 147 C363.1778062 145.69493819 367.76250358 144.3726154 372.1875 141.3125 C375.99869985 138.71995265 378.45652608 138.52672147 383 139 C382.78245658 144.32981372 381.66359656 147.37051389 378.015625 151.29296875 C370.70582504 157.48363267 362.92380443 160.38259077 353.47265625 160.28515625 C348.95302772 159.76393527 346.30642376 157.35308175 343.25 154.1875 C339.99223326 148.48640821 339.70223835 142.77431051 339.8125 136.375 C339.81894531 135.59463379 339.82539063 134.81426758 339.83203125 134.01025391 C339.9197848 127.31219016 340.3403657 120.66701814 341 114 C331.60967475 115.10474415 325.56940247 123.05766603 320 130 C315.8220364 135.53879418 311.92570274 141.28143738 308 147 C305.84247074 150.1314408 303.67382913 153.25486057 301.5 156.375 C300.76160889 157.45418701 300.76160889 157.45418701 300.00830078 158.55517578 C295.46050294 165.08409923 295.46050294 165.08409923 292 167 C289.30190224 166.74303831 287.41649307 166.20824654 285 165 C284.68758629 162.45058627 284.48696579 159.99638487 284.375 157.4375 C284.33632813 156.72658203 284.29765625 156.01566406 284.2578125 155.28320312 C284.16328217 153.52257575 284.08054183 151.76132272 284 150 C283.04738281 150.75925781 282.09476562 151.51851562 281.11328125 152.30078125 C279.84647623 153.30484152 278.57954232 154.3087392 277.3125 155.3125 C276.68666016 155.81201172 276.06082031 156.31152344 275.41601562 156.82617188 C267.16409009 163.34994547 261.75222391 165.11055834 251 164 C247.00689849 162.77583749 245.3534673 160.60594394 243.25 157 C241.35765476 151.88282973 240.75067005 146.37833013 240 141 C239.50113281 141.54527344 239.00226563 142.09054687 238.48828125 142.65234375 C228.46856369 153.1757455 214.6672998 164.13575557 199.625 165.25 C195.47668704 164.96390945 193.39224403 164.41226242 190 162 C187.34779758 157.98256551 185.76919415 153.45402386 184 149 C183.09378906 149.61488281 182.18757813 150.22976563 181.25390625 150.86328125 C164.08507921 162.33199159 164.08507921 162.33199159 154 161 C149.61214947 158.72169299 147.08192894 156.49258351 145 152 C144.15400018 148.57181201 143.91473959 145.53567047 144.0859375 142.015625 C144.15167969 140.61183594 144.15167969 140.61183594 144.21875 139.1796875 C144.2703125 138.21289062 144.321875 137.24609375 144.375 136.25 C144.44074219 134.82300781 144.44074219 134.82300781 144.5078125 133.3671875 C144.79501898 127.54327834 145.29729758 121.78836232 146 116 C133.37209922 124.56928829 125.13515641 136.72235597 116.4375 148.98876953 C108.88288629 159.55855686 108.88288629 159.55855686 106 161 C103.0625 161.375 103.0625 161.375 100 161 C98.0625 159.1875 98.0625 159.1875 97 156 C96.97735985 147.4099499 99.26059798 139.17957912 101.4375 130.9375 C103.50420845 122.99026028 105.51387856 115.07896981 107 107 C96.41316741 108.70086086 87.97954959 120.79330455 81.796875 129.046875 C76.94526655 135.76183236 72.6720827 142.86766617 68.31005859 149.90478516 C59.89405978 163.36473704 59.89405978 163.36473704 55 166 C51.8125 166 51.8125 166 49 165 C46.844756 162.34528676 46.93207012 160.14341176 47.2421875 156.890625 C47.44071527 155.34210841 47.65206198 153.7951911 47.875 152.25 C48.03162109 151.06083984 48.03162109 151.06083984 48.19140625 149.84765625 C48.4499339 147.89694759 48.72350266 145.94824281 49 144 C48.1028125 144.70125 47.205625 145.4025 46.28125 146.125 C39.65918263 151.19895843 33.03751952 155.82499024 25.5625 159.5625 C24.60730469 160.04493164 24.60730469 160.04493164 23.6328125 160.53710938 C14.08592299 165.1319221 4.46375702 166.06575303 -6 165 C-10.35366673 163.40238253 -13.08117455 160.99758191 -16.1875 157.625 C-16.785625 157.08875 -17.38375 156.5525 -18 156 C-22.64005687 156.26537587 -25.21696673 158.45709877 -28.75 161.3125 C-37.27040882 167.98877275 -45.92053433 172.17773848 -57 171 C-62.70747771 168.9855961 -66.08512745 165.42379212 -68.9765625 160.25390625 C-77.19964328 141.77118731 -65.29635145 112.91583019 -58.62255859 95.38085938 C-51.17760434 76.35520869 -51.17760434 76.35520869 -48 70 C-49.11761719 70.15984375 -50.23523438 70.3196875 -51.38671875 70.484375 C-56.19963168 71.08241045 -60.96653 71.21973633 -65.8125 71.25 C-66.65748047 71.270625 -67.50246094 71.29125 -68.37304688 71.3125 C-69.18451172 71.31765625 -69.99597656 71.3228125 -70.83203125 71.328125 C-71.56139893 71.3374707 -72.2907666 71.34681641 -73.04223633 71.35644531 C-75.56491315 70.89714763 -76.4462246 70.00223503 -78 68 C-78.29296875 65.73828125 -78.29296875 65.73828125 -78.1875 63.3125 C-78.16042969 62.50425781 -78.13335937 61.69601562 -78.10546875 60.86328125 C-78.07066406 60.24839844 -78.03585938 59.63351562 -78 59 C-71.14808818 56.01203845 -63.71951421 56.61257232 -56.38476562 56.52148438 C-45.38885574 56.35203176 -45.38885574 56.35203176 -36.08984375 51.15234375 C-35.51943359 50.05599609 -35.51943359 50.05599609 -34.9375 48.9375 C-34.46699219 48.050625 -33.99648437 47.16375 -33.51171875 46.25 C-31.33735995 41.57540951 -29.28892357 36.84814714 -27.24853516 32.11376953 C-12.76536608 -0.89581516 -12.76536608 -0.89581516 0 0 Z M12.0625 103.0625 C5.11260199 109.15730584 -0.2040097 118.24796786 -3 127 C-2.67 127.99 -2.34 128.98 -2 130 C15.15756826 120.01293878 15.15756826 120.01293878 26 104 C26.16240318 101.319882 26.16240318 101.319882 26 99 C20.12085286 97.09792299 16.84381457 99.70540679 12.0625 103.0625 Z M222 112 C221.08992188 112.81597656 220.17984375 113.63195312 219.2421875 114.47265625 C214.08032699 119.35413715 209.80296518 124.30862216 205.9375 130.25 C205.5674585 130.81605957 205.19741699 131.38211914 204.81616211 131.96533203 C201.67113851 137.03728313 199.13305042 142.93135291 200 149 C202.6941135 151.28462795 202.6941135 151.28462795 205.05078125 150.6796875 C214.41881706 147.34667303 220.82141267 141.74443929 228 135 C228.48839355 134.54560547 228.97678711 134.09121094 229.47998047 133.62304688 C237.99260341 125.65051628 247.36658987 116.36845334 251 105 C251 103.68 251 102.36 251 101 C240.72297452 95.86148726 229.11979162 105.58353126 222 112 Z " fill="#ECAF54" transform="translate(151,443)"/>
<path d="M0 0 C2.6875 1 2.6875 1 4.6875 3 C5.78583734 12.04190416 0.56633829 20.36288876 -3.375 28.125 C-4.04636895 29.47584427 -4.71630295 30.82740271 -5.38476562 32.1796875 C-7.01088655 35.4615218 -8.65619867 38.73327298 -10.3125 42 C-5.37571652 42.07581096 -0.49274268 42.07513936 4.42578125 41.60546875 C5.18310547 41.53779297 5.94042969 41.47011719 6.72070312 41.40039062 C8.26150518 41.25647681 9.80071174 41.09451844 11.33789062 40.91601562 C15.68177837 40.56179302 17.12024544 40.56432511 20.71875 43.328125 C22.6875 46 22.6875 46 22.875 48.5625 C21.15227357 52.09862268 19.14919743 53.17474136 15.6875 55 C8.38196338 57.18354372 1.13283211 57.66798549 -6.44335938 58.2109375 C-7.38373047 58.28570313 -8.32410156 58.36046875 -9.29296875 58.4375 C-10.13754639 58.49808594 -10.98212402 58.55867187 -11.85229492 58.62109375 C-14.72080778 59.06288515 -16.7655254 59.57752893 -19.3125 61 C-25.30155843 69.76030955 -28.53121275 80.57709692 -31.85766602 90.5703125 C-32.63228884 92.89689203 -33.42133205 95.21819619 -34.21289062 97.5390625 C-34.72218305 99.04399058 -35.23067592 100.54918953 -35.73828125 102.0546875 C-35.96848465 102.73506073 -36.19868805 103.41543396 -36.43586731 104.11642456 C-39.45856698 112.94723225 -39.45856698 112.94723225 -40.578125 122.140625 C-40.58070313 122.81867188 -40.58328125 123.49671875 -40.5859375 124.1953125 C-40.57820312 124.87335938 -40.57046875 125.55140625 -40.5625 126.25 C-40.57023438 126.94351563 -40.57796875 127.63703125 -40.5859375 128.3515625 C-40.62432063 133.54905873 -40.62432063 133.54905873 -38.3125 138 C-33.24623206 139.86969412 -29.63568269 138.13235488 -24.9140625 136.046875 C-20.35736485 133.63829797 -16.41658926 130.4380661 -12.4375 127.1875 C-11.72432617 126.60734131 -11.01115234 126.02718262 -10.27636719 125.42944336 C-1.35890873 117.8814069 3.43789801 109.05599759 8.625 98.6875 C20.17653509 75.67397661 20.17653509 75.67397661 25.6875 72 C30.22804054 72.54054054 30.22804054 72.54054054 31.6875 74 C31.9764541 78.96755127 31.37482774 82.81699478 29.75 87.5 C29.53690186 88.12455078 29.32380371 88.74910156 29.10424805 89.39257812 C27.66975569 93.50318638 26.07597406 97.53560544 24.421875 101.5625 C19.98176667 112.41639786 16.26540838 122.1994838 15.6875 134 C23.40978111 133.7217196 27.92701145 131.5576321 34.25 127.25 C35.85543979 126.19266435 37.46090825 125.13537225 39.06640625 124.078125 C41.35439156 122.5563021 43.64019876 121.03194154 45.91748047 119.49414062 C46.61373535 119.03716797 47.30999023 118.58019531 48.02734375 118.109375 C48.63827881 117.70170898 49.24921387 117.29404297 49.87866211 116.87402344 C51.6875 116 51.6875 116 55.6875 116 C56.21775022 119.03000123 56.20299069 121.17096342 54.55078125 123.828125 C44.48617845 135.81791816 30.57398183 146.57241776 14.59765625 148.21484375 C9.98974803 148.42936462 7.33897701 147.75031121 3.6875 145 C2.10546875 142.30078125 2.10546875 142.30078125 0.875 139.3125 C0.24658203 137.82169922 0.24658203 137.82169922 -0.39453125 136.30078125 C-0.84892578 135.16189453 -0.84892578 135.16189453 -1.3125 134 C-2.60527786 134.85248395 -3.89662941 135.70713073 -5.1875 136.5625 C-6.42306641 137.38041016 -6.42306641 137.38041016 -7.68359375 138.21484375 C-9.40567769 139.38422319 -11.10756245 140.58405061 -12.78515625 141.81640625 C-21.97440837 148.5590746 -30.7161073 152.36033989 -42.3125 152 C-45.89289795 151.43811273 -48.3006813 150.15874032 -50.73828125 147.3671875 C-54.96763176 141.20406315 -56.54024246 134.15466935 -58.3125 127 C-59.00214844 127.72445312 -59.69179688 128.44890625 -60.40234375 129.1953125 C-69.01494578 138.11479149 -77.89763932 146.64035013 -91.02734375 147.09375 C-94.8652974 146.86831954 -97.52396522 146.52568985 -100.75 144.375 C-104.54213057 138.61096153 -106.02235678 132.69356659 -107.3125 126 C-108.15167969 126.81791016 -108.15167969 126.81791016 -109.0078125 127.65234375 C-119.5549641 137.57209244 -131.96475828 147.14023132 -146.94921875 148.18359375 C-150.76329688 147.98816165 -152.97880835 147.20589485 -156.25 145.1875 C-159.3103918 140.45780358 -159.72155102 135.53022402 -160.3125 130 C-161.58480469 130.90878906 -161.58480469 130.90878906 -162.8828125 131.8359375 C-163.44307129 132.23594971 -164.00333008 132.63596191 -164.58056641 133.0480957 C-165.83089959 133.94154309 -167.08056181 134.83593011 -168.32958984 135.73120117 C-171.61105691 138.08126359 -174.90155709 140.41542594 -178.21875 142.71484375 C-178.84249512 143.15070801 -179.46624023 143.58657227 -180.10888672 144.03564453 C-181.29912208 144.86674345 -182.49328598 145.69225357 -183.69189453 146.51123047 C-194.54624184 154.12747593 -197.34331723 166.77020442 -201.15478516 178.82568359 C-208.38478621 201.68822715 -216.57626173 225.06412608 -238.3125 238 C-245.50132309 240.92426702 -252.38340144 240.93939979 -259.4921875 237.984375 C-262.3255954 236.45214584 -264.23575131 234.43276275 -266.3125 232 C-267.17875 231.01 -267.17875 231.01 -268.0625 230 C-271.08269175 225.1676932 -270.87131565 219.21877816 -269.921875 213.75 C-268.01786228 206.13394911 -263.93542961 200.25072173 -259.3125 194 C-258.30703125 192.63875 -258.30703125 192.63875 -257.28125 191.25 C-246.33514478 177.19977539 -231.94409379 165.08333809 -216.7734375 155.7890625 C-209.98935928 151.61297542 -206.41646687 148.75558002 -204.3125 141 C-203.94640625 139.74574219 -203.5803125 138.49148438 -203.203125 137.19921875 C-201.09274849 130.20576666 -201.09274849 130.20576666 -200.3125 123 C-201.71048828 124.16015625 -201.71048828 124.16015625 -203.13671875 125.34375 C-217.36166958 137.02403397 -233.82627448 149.99628822 -253.3125 149 C-259.72122816 147.93962988 -264.95544275 145.97949399 -269.3125 141 C-274.56534921 130.83901981 -274.20624815 121.43212705 -271.484375 110.5703125 C-266.46073144 95.26494513 -257.07361474 79.71032927 -242.765625 71.546875 C-237.43154206 69.19457755 -232.11089031 67.79026389 -226.3125 69 C-222.2816677 70.71944595 -219.26102153 72.96255458 -216.3125 76.1875 C-214.3371627 81.74313617 -214.3478282 87.56756561 -216.75 93 C-224.06507797 105.73744345 -239.25801451 120.61985711 -253.625 124.6484375 C-255.5625 124.9375 -255.5625 124.9375 -258.3125 125 C-257.88992724 126.4835001 -257.44893678 127.96176424 -257 129.4375 C-256.75636719 130.26121094 -256.51273438 131.08492187 -256.26171875 131.93359375 C-255.94847656 132.61550781 -255.63523437 133.29742188 -255.3125 134 C-246.96724755 136.78175082 -239.07361803 134.46813245 -231.3125 131 C-222.47995986 126.14008636 -214.71497358 120.14959002 -207.1640625 113.5 C-204.90598403 111.52031476 -202.61206691 109.66194814 -200.25 107.8125 C-193.9300467 102.2534256 -192.30072791 94.10302587 -190.32568359 86.25463867 C-188.89814077 80.92786806 -186.82204206 77.27725438 -183.3125 73 C-180.75 71.8125 -180.75 71.8125 -178.3125 72 C-176.1484375 73.515625 -176.1484375 73.515625 -174.3125 76 C-174.08937585 78.86827712 -174.15845706 81.11728096 -174.5 83.9375 C-174.58878418 84.7634668 -174.67756836 85.58943359 -174.76904297 86.44042969 C-176.79859373 102.17564416 -181.35507964 117.66165162 -185.3125 133 C-170.41483618 124.61811327 -157.58830074 113.91586414 -146.875 100.5625 C-135.72320897 86.66748765 -122.26747811 73.52489174 -103.8125 71.0625 C-94.89193243 70.53480445 -87.21943157 74.28062101 -79.3125 78 C-80.55799715 86.25722301 -82.73045075 93.96500655 -85.375 101.875 C-86.09748917 104.05909116 -86.81763282 106.24395995 -87.53515625 108.4296875 C-87.85234619 109.38085449 -88.16953613 110.33202148 -88.49633789 111.31201172 C-89.91991781 116.00049959 -90.46957706 120.28940693 -90.5 125.1875 C-90.51417969 126.23292969 -90.52835938 127.27835938 -90.54296875 128.35546875 C-90.58441489 131.15678221 -90.58441489 131.15678221 -88.3125 133 C-86.93384409 132.59559427 -85.5597278 132.17570763 -84.1875 131.75 C-83.42179688 131.51796875 -82.65609375 131.2859375 -81.8671875 131.046875 C-70.02085267 126.19241363 -57.57051634 113.44509291 -52.33007812 101.82080078 C-50.15507749 96.58786796 -48.23219303 91.2689973 -46.34765625 85.92578125 C-45.26275015 82.85938627 -44.15043299 79.80404171 -43.03125 76.75 C-41.11000742 71.50535799 -39.20540147 66.25493186 -37.3125 61 C-38.13621094 61.15984375 -38.95992187 61.3196875 -39.80859375 61.484375 C-43.67817646 62.05381192 -47.47273427 62.22085142 -51.375 62.25 C-52.06916016 62.270625 -52.76332031 62.29125 -53.47851562 62.3125 C-57.90047932 62.34609517 -60.91813469 61.93781325 -64.3125 59 C-64.3125 57.68 -64.3125 56.36 -64.3125 55 C-55.60452653 51.90721175 -47.05598994 49.24759374 -37.94946289 47.60839844 C-32.93434394 46.58118386 -31.19593425 45.12547906 -28.3125 41 C-27.31434144 39.07843632 -26.38161479 37.121836 -25.5078125 35.140625 C-25.00636719 34.02429688 -24.50492188 32.90796875 -23.98828125 31.7578125 C-22.96148267 29.43523031 -21.93543041 27.11231802 -20.91015625 24.7890625 C-9.76932471 0 -9.76932471 0 0 0 Z M-243.3125 88.1875 C-249.28235152 94.44427461 -253.2644075 101.93582736 -256.3125 110 C-255.9825 110.99 -255.6525 111.98 -255.3125 113 C-245.03438145 106.92301356 -233.19556303 99.44922438 -228.3125 88 C-228.13827262 85.29698669 -228.52680663 83.63768488 -229.3125 81 C-234.88548476 81 -239.44599011 84.63174515 -243.3125 88.1875 Z M-137.3125 109 C-141.90826044 115.64304004 -145.41288153 121.90343376 -146.3125 130 C-145.6525 130.99 -144.9925 131.98 -144.3125 133 C-138.28273036 134.20595393 -133.2266518 131.190738 -128.3125 128 C-124.06699232 124.5666277 -120.16071317 120.86893731 -116.3125 117 C-115.43207031 116.11957031 -114.55164063 115.23914063 -113.64453125 114.33203125 C-106.49287029 106.82555921 -98.37376303 97.12304024 -95.3125 87 C-95.8075 85.515 -95.8075 85.515 -96.3125 84 C-113.32504828 82.29874517 -127.46594302 96.62995355 -137.3125 109 Z M-232.10424805 182.12451172 C-234.66262413 184.5076451 -237.25096315 186.77890294 -240 188.9375 C-248.2446726 195.90909816 -255.70281716 206.35722013 -257.25 217.1875 C-257.44444129 220.34717091 -257.30549647 222.02018665 -256.25 225.0625 C-254.4008346 227.14623736 -254.4008346 227.14623736 -251.75 228.125 C-245.68342432 227.90439725 -240.69971331 225.22158161 -236.27514648 221.10400391 C-231.31008043 215.55642273 -227.61907022 209.87724092 -224.25 203.25 C-223.74049805 202.26153076 -223.23099609 201.27306152 -222.70605469 200.25463867 C-214.45662376 183.83909222 -214.45662376 183.83909222 -211.3125 166 C-217.86716749 166 -227.21285345 177.56540664 -232.10424805 182.12451172 Z " fill="#ECAF53" transform="translate(908.3125,460)"/>
<path d="M0 0 C2.18925832 1.01705701 4.37646231 2.03853899 6.5625 3.0625 C8.21377843 3.7530841 9.86763723 4.43751675 11.5234375 5.1171875 C13.30760096 5.86905816 15.09145402 6.62166577 16.875 7.375 C17.72312256 7.71716553 18.57124512 8.05933105 19.44506836 8.41186523 C25.35627964 10.97682248 30.50205902 14.2089789 33.5625 20.0625 C33.8925 23.0325 34.2225 26.0025 34.5625 29.0625 C27.3025 32.6925 20.0425 36.3225 12.5625 40.0625 C16.99080284 44.70636815 16.99080284 44.70636815 20 46.9375 C22.5625 49.0625 22.5625 49.0625 23.70556641 50.77709961 C25.82469954 53.90369616 27.38210138 55.789372 31.1496582 56.66113281 C34.28184409 56.83486861 37.36398556 56.82486692 40.5 56.75 C61.10530975 56.95020993 78.3069982 62.71356089 93.046875 77.41796875 C106.50398725 91.56465353 112.87203694 109.58101909 112.5625 129.0625 C110.99182154 146.84787269 103.41041189 164.42670589 90.359375 176.74609375 C76.55866151 188.17601428 59.54945216 195.21722647 41.5625 195.0625 C25.68044329 193.52223126 9.40363861 188.03721383 -2.4375 177.0625 C-3.02789062 176.32773437 -3.61828125 175.59296875 -4.2265625 174.8359375 C-6.32200249 172.73203446 -6.32200249 172.73203446 -9.15234375 173.328125 C-10.21582031 173.65296875 -11.27929688 173.9778125 -12.375 174.3125 C-32.62299984 179.31122496 -52.66169464 175.73961442 -70.57128906 165.26904297 C-75.80658392 161.88431937 -80.14175379 157.5424436 -84.4375 153.0625 C-85.12457031 152.35996094 -85.81164062 151.65742188 -86.51953125 150.93359375 C-98.72192543 137.77414904 -104.32086184 121.08823827 -104.46875 103.3046875 C-103.55714004 81.47162886 -95.05839358 60.79635111 -79.0625 45.8125 C-64.61577762 33.51794346 -47.94933931 28.02681171 -29.1875 27.9375 C-28.50179932 27.93282715 -27.81609863 27.9281543 -27.10961914 27.92333984 C-23.41104782 27.93507704 -20.04344758 28.28159909 -16.4375 29.0625 C-16.67984375 28.45776855 -16.9221875 27.85303711 -17.171875 27.22998047 C-18.27103929 24.46991553 -19.35436259 21.70389149 -20.4375 18.9375 C-20.8190625 17.98617188 -21.200625 17.03484375 -21.59375 16.0546875 C-25.00105932 7.29303496 -25.00105932 7.29303496 -24.4375 2.0625 C-16.22602541 -2.89537145 -8.99468043 -3.65369247 0 0 Z M-76.4375 64.0625 C-87.76424724 79.02200335 -91.42458933 96.87676228 -89.01171875 115.31640625 C-85.54305776 131.29778298 -75.62092289 144.70367538 -62.0625 153.5625 C-48.14743666 161.53053032 -32.91731325 164.16117396 -17.4375 160.0625 C-17.98715372 154.15372247 -19.67894202 148.78568315 -21.5 143.1484375 C-26.51515702 126.64021232 -23.91684898 108.4257012 -16.1875 93.25 C-8.62761884 80.11289308 1.13516908 71.44076204 13.5625 63.0625 C7.38371528 52.24962674 -4.49931175 46.82846078 -16.1328125 43.62109375 C-38.56879551 38.1832199 -61.44904669 47.0443603 -76.4375 64.0625 Z M36.5625 71.0625 C37.73974267 77.44875006 37.73974267 77.44875006 39.36328125 83.73046875 C44.94943823 102.50101518 41.56056658 121.86665194 32.4765625 138.875 C26.24884677 149.24605313 17.8677772 157.72079095 7.5625 164.0625 C10.50299627 171.11059672 18.1519439 174.02987357 24.8125 176.875 C38.70600069 182.55369274 53.05020238 180.33145335 66.640625 174.8125 C81.07356817 167.55479143 90.64950922 155.67860357 95.8359375 140.5703125 C100.20054732 125.50536894 96.91986083 109.98904991 89.6328125 96.390625 C82.10981463 84.29705107 71.63640874 76.12883855 57.78515625 72.55078125 C50.67135282 70.98799491 43.81575627 70.95530902 36.5625 71.0625 Z M21.5625 74.0625 C8.84165069 79.48063952 -1.76364285 90.42793023 -7.3125 103.0625 C-12.70598198 117.29983963 -13.35910134 131.90101125 -7.125 146.0390625 C-5.9476171 148.41389732 -4.73199836 150.74979937 -3.4375 153.0625 C4.69773168 152.65573842 9.82934047 147.02979759 15.1875 141.4375 C19.81135537 136.12006632 22.8911058 130.56118013 25.5625 124.0625 C25.9028125 123.25941406 26.243125 122.45632813 26.59375 121.62890625 C31.53098957 107.34291212 30.00894602 89.58050195 23.5625 76.0625 C22.9025 75.4025 22.2425 74.7425 21.5625 74.0625 Z " fill="#F6CE6A" transform="translate(514.4375,253.9375)"/>
<path d="M0 0 C1.70518799 0.03359619 1.70518799 0.03359619 3.44482422 0.06787109 C4.99967529 0.12128662 4.99967529 0.12128662 6.5859375 0.17578125 C7.49134277 0.20196533 8.39674805 0.22814941 9.32958984 0.25512695 C12.08086925 0.77336944 13.01320247 1.41793963 14.625 3.6875 C15.05576923 9.82596154 15.05576923 9.82596154 13.625 12.6875 C2.55133294 16.23943094 -10.0801295 15.82936704 -21.578125 16.1171875 C-24.16431746 16.18881936 -26.75049867 16.26085845 -29.33666992 16.33325195 C-30.69965602 16.37058047 -32.06264227 16.40790339 -33.42562866 16.44522095 C-127.91937219 19.05944026 -221.74273652 28.19432834 -407.83812714 51.12738037 C-410.35013695 51.45747474 -412.86218595 51.78727106 -415.37427521 52.11676025 C-422.55671941 53.05887516 -429.73855899 54.00538793 -436.91953659 54.95862007 C-439.09622194 55.2472696 -441.27303693 55.53494381 -443.45000076 55.82148552 C-456.06616735 57.4842897 -468.63913244 59.30298619 -481.18613052 61.43239498 C-493.6509385 63.50416071 -493.6509385 63.50416071 -497.75 61.5625 C-499.375 59.6875 -499.375 59.6875 -499.875 56.8125 C-499.25316271 52.92601696 -498.03657303 51.56499534 -495.375 48.6875 C-466.16053543 28.19789579 -426.31914278 26.31090219 -392.0718689 23.16448975 C-385.40416799 22.55040213 -378.73882223 21.91234181 -372.07421875 21.265625 C-371.40451113 21.20073254 -370.7348035 21.13584007 -370.04480171 21.06898117 C-359.27162911 20.02021888 -348.52819164 18.79478282 -337.79223633 17.41699219 C-335.54911024 17.13122301 -333.3058412 16.84657553 -331.0625 16.5625 C-330.24020653 16.457882 -329.41791306 16.35326401 -328.5707016 16.24547577 C-314.27820137 14.43635676 -299.99131885 12.90695523 -285.6328125 11.734375 C-284.63221109 11.6515691 -283.63160969 11.5687632 -282.60068703 11.48344803 C-256.23575521 9.31468088 -229.83087594 7.79550945 -203.42163086 6.28448486 C-198.26815359 5.98804663 -193.11505969 5.68522457 -187.96195602 5.3823719 C-107.10119845 0.63395455 -107.10119845 0.63395455 -72.25 0.0625 C-70.18733595 0.02497305 -68.12467322 -0.01262631 -66.06201172 -0.05029297 C-44.03734214 -0.43639568 -22.02334247 -0.59777223 0 0 Z " fill="#F6CE68" transform="translate(607.375,667.3125)"/>
<path d="M0 0 C0.97683825 0.01900124 0.97683825 0.01900124 1.97341061 0.03838634 C4.01054393 0.08292094 6.0459315 0.15029573 8.08227539 0.22192383 C9.93431076 0.27517319 9.93431076 0.27517319 11.82376099 0.32949829 C15.68316684 0.45441879 19.54077728 0.60918238 23.39868164 0.77270508 C24.84436809 0.83186431 26.2900623 0.89083421 27.73576355 0.94963074 C31.57822766 1.10706241 35.42048304 1.26908119 39.26268005 1.43289185 C41.66227912 1.53516989 44.0619109 1.63665232 46.46154785 1.73803711 C125.24058788 5.07580014 125.24058788 5.07580014 150.64477539 7.72192383 C151.66603516 7.82827148 152.68729492 7.93461914 153.73950195 8.04418945 C167.8449338 9.69909775 181.14835437 12.8660897 191.89868164 22.71411133 C193.08227539 24.22192383 193.08227539 24.22192383 193.70727539 27.34692383 C193.0044966 30.57970628 192.58433094 32.04271416 190.08227539 34.22192383 C184.51751099 35.45946756 180.00708059 34.97705781 174.51977539 33.92895508 C173.29637703 33.70990761 173.29637703 33.70990761 172.04826355 33.48643494 C170.30032103 33.17321753 168.55315678 32.8556308 166.80673218 32.53405762 C162.17054982 31.68383552 157.52689016 30.87679344 152.88305664 30.06958008 C151.48969841 29.82683853 151.48969841 29.82683853 150.06819153 29.57919312 C131.69621721 26.40364994 113.2144375 24.29179625 94.64086914 22.74145508 C93.87884815 22.67747591 93.11682716 22.61349674 92.33171463 22.54757881 C72.36925203 20.88869792 52.37175306 19.97080114 32.36480713 19.03863525 C27.25861146 18.80044572 22.15277753 18.55622886 17.04727554 18.30359077 C14.70898607 18.1902584 12.37041855 18.08564025 10.03170776 17.98143005 C-9.14345943 17.07143395 -9.14345943 17.07143395 -14.91772461 13.22192383 C-15.33562303 9.37725836 -15.29314213 6.35315602 -12.91772461 3.22192383 C-8.43114073 0.51769315 -5.20520898 -0.1311211 0 0 Z " fill="#F7CE68" transform="translate(720.917724609375,667.778076171875)"/>
<path d="M0 0 C2.94324064 1.71322962 4.00846422 3.61794414 5.4453125 6.6640625 C6.00021828 11.34112547 5.05804575 13.25208445 2.8828125 17.3515625 C-0.17061471 16.90252909 -2.18203821 16.31324162 -4.8671875 14.7265625 C-9.27948749 12.8598202 -12.55555625 12.94621146 -17.1171875 14.3515625 C-21.26596472 16.6913611 -24.58131508 18.74394524 -26.1171875 23.3515625 C-27.19925102 33.95578498 -20.84362803 42.93527838 -15.73486328 51.75512695 C-11.04458889 59.93756781 -7.80996366 66.81824177 -10.1171875 76.3515625 C-12.70779399 81.84364825 -16.60329208 85.01233414 -22.1171875 87.3515625 C-30.56338076 89.61440555 -38.24854835 87.82886515 -46.1171875 84.3515625 C-51.53606715 81.1282634 -56.25487304 77.60361818 -58.1171875 71.3515625 C-57.70902423 65.94339923 -57.70902423 65.94339923 -56.1171875 64.3515625 C-49.96507289 64.3515625 -46.90985149 66.69869959 -42.328125 70.66015625 C-37.70846877 74.19427489 -33.84975661 74.57636913 -28.1171875 74.3515625 C-28.28693609 66.51226393 -29.96063261 60.40783471 -33.21630859 53.31591797 C-35.16135501 49.07476798 -37.04843626 44.80879403 -38.9296875 40.5390625 C-39.33896484 39.6433252 -39.74824219 38.74758789 -40.16992188 37.82470703 C-42.68171079 32.12855629 -44.20835602 27.48732012 -42.55859375 21.234375 C-35.145904 6.4089955 -16.82723875 -5.15372995 0 0 Z " fill="#ECAF53" transform="translate(631.1171875,525.6484375)"/>
<path d="M0 0 C2.18925832 1.01705701 4.37646231 2.03853899 6.5625 3.0625 C8.21377843 3.7530841 9.86763723 4.43751675 11.5234375 5.1171875 C13.30760096 5.86905816 15.09145402 6.62166577 16.875 7.375 C17.72312256 7.71716553 18.57124512 8.05933105 19.44506836 8.41186523 C25.50516321 11.04142514 30.18978487 14.24855712 33.5625 20.0625 C34.34513419 23.09450898 34.61314779 25.93680797 34.5625 29.0625 C31.05010969 30.89171082 27.52629933 32.69776849 24 34.5 C23.00935547 35.01626953 22.01871094 35.53253906 20.99804688 36.06445312 C11.11016659 41.09051852 11.11016659 41.09051852 5.5625 41.0625 C3.03515625 39.98828125 3.03515625 39.98828125 0.625 38.375 C-6.30474019 34.22296293 -13.62150879 32.72964994 -21.4375 31.0625 C-21.4375 30.7325 -21.4375 30.4025 -21.4375 30.0625 C-19.7875 30.0625 -18.1375 30.0625 -16.4375 30.0625 C-16.67984375 29.42747559 -16.9221875 28.79245117 -17.171875 28.13818359 C-18.27065994 25.24172311 -19.35417827 22.33977748 -20.4375 19.4375 C-20.8190625 18.43847656 -21.200625 17.43945312 -21.59375 16.41015625 C-21.9546875 15.43691406 -22.315625 14.46367187 -22.6875 13.4609375 C-23.02265625 12.57067871 -23.3578125 11.68041992 -23.703125 10.76318359 C-24.51905221 7.76258959 -24.56465925 5.15803289 -24.4375 2.0625 C-16.22602541 -2.89537145 -8.99468043 -3.65369247 0 0 Z " fill="#EEB158" transform="translate(514.4375,253.9375)"/>
<path d="M0 0 C5.53846154 3.07692308 5.53846154 3.07692308 7 6 C7.51899581 10.49796366 7.31754808 12.49565893 4.875 16.375 C2 19 2 19 -0.8125 20.1875 C-5.43998689 19.91529489 -8.55388009 18.04502757 -12 15 C-13.56360708 11.69905172 -12.99714911 9.98496802 -12.3125 6.375 C-9.85827293 0.06413039 -6.58409299 -0.79463191 0 0 Z " fill="#EDAD51" transform="translate(949,499)"/>
<path d="M0 0 C3.60549148 2.66492848 4.84539972 4.03804272 5.5625 8.5 C4.8887261 12.69237096 4.27771916 14.28189143 1 17 C-3.37493489 18.3222751 -6.78975081 18.52948402 -11 16.6875 C-13.76005013 14.35870771 -13.95556809 13.38507651 -14.375 9.75 C-13.87855761 4.78557614 -12.52492587 3.44295085 -9 0 C-5.37580435 -1.20806522 -3.66716248 -1.0268055 0 0 Z " fill="#ECAF51" transform="translate(739,502)"/>
<path d="M0 0 C0.33 0.66 0.66 1.32 1 2 C-13.08154763 19.11234431 -13.08154763 19.11234431 -21 20 C-17.58510115 11.48237872 -7.31278061 5.15456742 0 0 Z " fill="#E9A640" transform="translate(714,563)"/>
<path d="M0 0 C-0.32432407 3.06382739 -0.98901487 3.98970965 -3.28515625 6.140625 C-4.65994141 7.18476563 -4.65994141 7.18476563 -6.0625 8.25 C-6.98160156 8.95640625 -7.90070313 9.6628125 -8.84765625 10.390625 C-9.91306641 11.18726563 -9.91306641 11.18726563 -11 12 C-11.33 10.68 -11.66 9.36 -12 8 C-10.37982158 6.66081194 -8.75370657 5.3288031 -7.125 4 C-6.22007812 3.2575 -5.31515625 2.515 -4.3828125 1.75 C-2 0 -2 0 0 0 Z " fill="#F7CB5D" transform="translate(445,294)"/>
<path d="M0 0 C0.66 0.33 1.32 0.66 2 1 C-0.64 3.64 -3.28 6.28 -6 9 C-6.99 8.67 -7.98 8.34 -9 8 C-7.87811441 6.85111717 -6.75238316 5.70598863 -5.625 4.5625 C-4.99851563 3.92441406 -4.37203125 3.28632812 -3.7265625 2.62890625 C-2 1 -2 1 0 0 Z " fill="#EDA945" transform="translate(207,566)"/>
<path d="M0 0 C1.32 0.66 2.64 1.32 4 2 C2.37660195 3.70884005 0.70680947 5.37446717 -1 7 C-1.66 7 -2.32 7 -3 7 C-1.125 1.125 -1.125 1.125 0 0 Z " fill="#EDA944" transform="translate(902,462)"/>
</svg>