<svg xmlns="http://www.w3.org/2000/svg" version="1.1" viewBox="38.75 29 215.63 196.16">
<path d="M0 0 C2.50087928 1.2281222 4.96655606 2.24399457 7.58740234 3.18115234 C14.55914038 5.6952175 19.18032702 7.71058283 22.76318359 14.66943359 C24.76318359 19.65068359 24.76318359 19.65068359 24.76318359 22.35693359 C16.76318359 26.35693359 8.76318359 30.35693359 0.76318359 34.35693359 C1.55982422 34.99759766 2.35646484 35.63826172 3.17724609 36.29833984 C4.24782718 37.17170863 5.31812441 38.04542544 6.38818359 38.91943359 C6.91025391 39.33773437 7.43232422 39.75603516 7.97021484 40.18701172 C10.9812332 42.65902061 13.2320399 44.99629949 15.48193359 48.18505859 C17.34622241 50.41934266 18.25564981 51.25152434 21.13183594 51.84887695 C23.99420707 51.90325212 26.78344689 51.7580772 29.63818359 51.54443359 C49.78750109 50.80328734 66.08718374 56.84290039 81.10693359 70.48583984 C94.79098972 83.59972697 101.49096253 100.89054246 102.13818359 119.85693359 C101.52329117 137.84922066 94.80829089 155.04630135 82.38818359 168.16943359 C68.99189447 180.6002244 50.76171263 188.79080331 32.33740234 188.50927734 C16.48968637 187.57140037 3.36498645 182.83994856 -9.23681641 173.35693359 C-10.46072685 171.97160189 -11.65562385 170.55919667 -12.79931641 169.10693359 C-14.29884062 167.33471938 -14.29884062 167.33471938 -16.23681641 166.35693359 C-19.35147185 166.65426377 -22.12152527 167.53404663 -25.11962891 168.42724609 C-42.97613162 173.09685252 -62.9515666 168.8951839 -78.58837891 159.75927734 C-94.77205104 149.58089431 -106.87928305 133.02920731 -111.74853516 114.56787109 C-116.48502078 93.1210642 -111.23323111 72.58488305 -100.04541016 54.10693359 C-89.5187085 38.10089046 -72.32631046 27.66705956 -53.75512695 23.73413086 C-48.97107245 23.01756622 -44.18840596 23.11079855 -39.36181641 23.16943359 C-38.33056641 23.17007813 -37.29931641 23.17072266 -36.23681641 23.17138672 C-28.65992168 23.2158985 -28.65992168 23.2158985 -25.23681641 24.35693359 C-25.50945312 23.61008301 -25.78208984 22.86323242 -26.06298828 22.09375 C-27.29090064 18.72433749 -28.5139174 15.35316871 -29.73681641 11.98193359 C-30.38070312 10.21849609 -30.38070312 10.21849609 -31.03759766 8.41943359 C-31.44365234 7.29794922 -31.84970703 6.17646484 -32.26806641 5.02099609 C-32.64511719 3.98410645 -33.02216797 2.9472168 -33.41064453 1.87890625 C-34.23681641 -0.64306641 -34.23681641 -0.64306641 -34.23681641 -2.64306641 C-21.60314546 -11.97052537 -12.77253809 -6.5891611 0 0 Z M-85.20556641 57.51318359 C-96.48145807 71.16294719 -100.48481585 86.78497347 -99.44824219 104.16894531 C-97.99050446 119.25467921 -90.27452184 132.28614305 -79.23681641 142.35693359 C-66.66317529 152.33212278 -52.38620953 157.38267053 -36.23681641 156.35693359 C-32.86727267 155.82828758 -29.55412073 155.14744016 -26.23681641 154.35693359 C-26.81976093 150.96633792 -27.69614561 148.10957839 -29.11181641 144.98193359 C-36.15214815 127.74082921 -35.74008624 110.37578447 -28.98681641 93.16943359 C-21.65587022 76.81578442 -10.68823634 65.93013798 4.76318359 57.35693359 C-4.16341249 45.45480548 -17.04813238 39.52517547 -31.38134766 36.74755859 C-52.44788914 33.86567877 -71.08686008 42.04983857 -85.20556641 57.51318359 Z M25.76318359 65.35693359 C26.11251953 66.45392578 26.46185547 67.55091797 26.82177734 68.68115234 C27.28155023 70.13553597 27.741178 71.58996549 28.20068359 73.04443359 C28.43078125 73.76566406 28.66087891 74.48689453 28.89794922 75.22998047 C29.1203125 75.93574219 29.34267578 76.64150391 29.57177734 77.36865234 C29.77601318 78.01278076 29.98024902 78.65690918 30.19067383 79.32055664 C35.21080893 97.17682398 31.92933102 116.88928763 23.17041016 132.93139648 C16.62392097 144.12211504 7.31945694 152.06149861 -3.23681641 159.35693359 C0.58259437 163.59825603 4.39377612 166.0722077 9.51318359 168.54443359 C10.22692139 168.89248047 10.94065918 169.24052734 11.67602539 169.59912109 C16.62178808 171.94904771 21.25853178 173.88801881 26.76318359 174.35693359 C27.56240234 174.43685547 28.36162109 174.51677734 29.18505859 174.59912109 C44.56939418 175.37288945 58.98261684 169.54160133 70.51318359 159.66943359 C80.43750108 150.21230937 86.98767057 137.90899606 88.00146484 124.11474609 C88.35677119 106.72343564 83.37576135 92.59226138 71.38427734 79.75146484 C60.32370246 69.64694561 47.67123687 65.10821296 32.88818359 65.29443359 C32.19982422 65.29894531 31.51146484 65.30345703 30.80224609 65.30810547 C29.12252024 65.31977023 27.44283984 65.33770089 25.76318359 65.35693359 Z M-5.91259766 80.93896484 C-17.02250794 92.49700597 -21.83409619 106.65633502 -21.62744141 122.51708984 C-20.7039496 131.59501427 -17.46887867 140.31477421 -13.23681641 148.35693359 C-4.01404659 146.76605955 3.39408477 138.18188297 8.82568359 131.14990234 C18.5675723 117.10665552 21.06673121 101.88355926 18.57568359 85.13818359 C17.31190991 79.25677531 15.1946163 73.86013814 12.76318359 68.35693359 C6.54309344 68.35693359 -1.69223079 76.98361317 -5.91259766 80.93896484 Z " fill="#F7CF6A" transform="translate(152.23681640625,36.64306640625)"/>
<path d="M0 0 C2.50087928 1.2281222 4.96655606 2.24399457 7.58740234 3.18115234 C14.55914038 5.6952175 19.18032702 7.71058283 22.76318359 14.66943359 C24.76318359 19.65068359 24.76318359 19.65068359 24.76318359 22.35693359 C20.12867012 24.70035759 15.48361105 27.02032776 10.828125 29.32177734 C9.02664316 30.22486117 7.24281832 31.16299707 5.46240234 32.10693359 C-1.41785959 35.60892031 -1.41785959 35.60892031 -5.48681641 34.35693359 C-6.39431641 33.69693359 -7.30181641 33.03693359 -8.23681641 32.35693359 C-10.5680657 31.35208476 -12.90125178 30.35171112 -15.23681641 29.35693359 C-15.83751953 29.02048828 -16.43822266 28.68404297 -17.05712891 28.33740234 C-19.83561242 27.0875827 -22.47899485 26.68964557 -25.48681641 26.23193359 C-26.56447266 26.06435547 -27.64212891 25.89677734 -28.75244141 25.72412109 C-29.98220703 25.54236328 -29.98220703 25.54236328 -31.23681641 25.35693359 C-31.23681641 25.02693359 -31.23681641 24.69693359 -31.23681641 24.35693359 C-29.25681641 24.35693359 -27.27681641 24.35693359 -25.23681641 24.35693359 C-25.64577148 23.23665771 -25.64577148 23.23665771 -26.06298828 22.09375 C-27.29090064 18.72433749 -28.5139174 15.35316871 -29.73681641 11.98193359 C-30.16607422 10.80630859 -30.59533203 9.63068359 -31.03759766 8.41943359 C-31.44365234 7.29794922 -31.84970703 6.17646484 -32.26806641 5.02099609 C-32.64511719 3.98410645 -33.02216797 2.9472168 -33.41064453 1.87890625 C-34.23681641 -0.64306641 -34.23681641 -0.64306641 -34.23681641 -2.64306641 C-21.60314546 -11.97052537 -12.77253809 -6.5891611 0 0 Z " fill="#EEB158" transform="translate(152.23681640625,36.64306640625)"/>
<path d="M0 0 C0.33 0.66 0.66 1.32 1 2 C-0.6029449 3.29318256 -2.20740142 4.58449156 -3.8125 5.875 C-4.70582031 6.59429687 -5.59914063 7.31359375 -6.51953125 8.0546875 C-9 10 -9 10 -12 12 C-12 11.01 -12 10.02 -12 9 C-9.8828125 6.9921875 -9.8828125 6.9921875 -7.125 4.875 C-6.22007813 4.17117187 -5.31515625 3.46734375 -4.3828125 2.7421875 C-2 1 -2 1 0 0 Z " fill="#F7CB5D" transform="translate(73,71)"/>
</svg>